<svg width="310" height="93" viewBox="0 0 310 93" fill="none" xmlns="http://www.w3.org/2000/svg">
<path d="M62.4643 36.5202C59.2672 36.5202 56.5621 37.4629 54.4717 39.3483C52.3404 41.2337 51.0288 43.775 50.4959 46.931H74.2686C73.8178 43.775 72.5472 41.2337 70.4568 39.3483C68.4074 37.4629 65.7433 36.5202 62.4643 36.5202ZM82.876 61.5635C82.1382 65.1294 78.1215 69.3101 75.0474 71.3595C71.4405 73.7368 67.2598 74.9254 62.5053 74.9254C55.8243 74.9254 50.455 72.7121 46.3562 68.2854C42.2575 63.8588 40.2081 58.2435 40.2081 51.4806C40.2081 44.8816 42.2575 39.3483 46.3972 34.8397C50.5369 30.3311 55.8653 28.1178 62.4233 28.1178C68.9813 28.1178 74.2686 30.3311 78.3264 34.7167C82.3842 39.1024 84.3925 44.6357 84.3925 51.3166L84.3106 54.5137H50.291C50.7009 58.0796 51.9715 60.9077 54.1848 62.998C56.3571 65.0884 59.2263 66.1541 62.7922 66.1541C67.6287 66.1541 71.0716 64.3916 73.7358 59.2682L82.876 61.5635Z" fill="white"/>
<path d="M264.121 35.6184C264.121 36.6841 264.121 37.135 264.121 37.135C264.121 37.135 250.267 36.6022 250.267 49.9231V73.2039H240.02V28.4866H249.488V34.6757C251.988 30.2491 256.661 27.7489 264.121 28.0358V35.6184Z" fill="white"/>
<path d="M106.236 74.2288H110.499C115.827 74.2288 119.885 72.6303 122.754 69.4332C125.623 66.2362 127.057 61.9325 127.057 56.5632V28.2819H116.77V55.2106C116.77 61.8505 113.982 65.2525 108.408 65.4165H108.203C102.629 65.2525 99.8418 61.8505 99.8418 55.2106V28.2819H89.554V56.5632C89.554 61.9325 90.9885 66.1952 93.8576 69.4332C96.7268 72.6303 100.785 74.2288 106.113 74.2288H110.376" fill="white"/>
<path fill-rule="evenodd" clip-rule="evenodd" d="M182.927 68.8182C180.632 66.3589 176.984 65.1293 171.984 65.1293H157.351C155.261 65.1293 154.236 64.1456 154.236 62.2192C154.236 61.1945 154.564 60.3337 155.261 59.7189C155.958 59.1041 156.531 58.7352 156.982 58.6123C159.565 59.596 162.065 60.0878 164.483 60.0878C169.893 60.0878 174.238 58.5303 177.517 55.4152C183.091 50.1689 182.395 43.6109 182.395 43.6109H172.967C172.967 43.6929 173.213 47.1768 170.672 49.3491C169.074 50.6607 167.065 51.4395 164.442 51.4395C161.819 51.4395 159.729 50.7427 158.212 49.3491C156.613 47.8326 155.958 43.6929 155.917 43.6109H146.531C146.531 43.6929 146.367 47.1358 147.924 50.5378C148.621 52.0543 149.973 53.8988 150.875 54.8415C147.309 56.8908 145.547 60.0059 145.547 64.1456C145.547 67.6705 146.776 70.2937 149.236 72.0562C146.039 74.2285 144.399 77.1386 144.399 80.7455C144.399 84.7623 146.039 87.7953 149.277 89.8857C152.515 91.9351 157.761 93.0007 165.016 93.0007C172.025 93.0007 177.353 91.5662 180.96 88.738C184.567 85.9099 186.37 82.5079 186.37 78.5322C186.37 74.4744 185.223 71.2774 182.927 68.8182ZM164.811 84.3934C160.548 84.3934 157.597 83.9425 155.917 83.0818C154.236 82.221 153.416 80.7865 153.416 78.7781C153.416 76.8107 154.236 75.2942 155.917 74.2285H171.697C173.377 74.2285 174.648 74.5974 175.591 75.3352C176.492 76.0729 176.984 77.1386 176.984 78.5322C176.984 82.426 172.926 84.3934 164.811 84.3934Z" fill="white"/>
<path d="M212.067 74.2284H216.33C221.658 74.2284 225.716 72.63 228.585 69.4329C231.454 66.2359 232.889 61.9322 232.889 56.5629V28.2816H222.601V55.2103C222.601 61.8502 219.814 65.2522 214.239 65.4161H214.076C208.501 65.2522 205.714 61.8502 205.714 55.2103V28.2816H195.426V56.5629C195.426 61.9322 196.861 66.1949 199.73 69.4329C202.599 72.63 206.657 74.2284 211.985 74.2284H216.248" fill="white"/>
<path d="M185.991 17.1378C187.264 19.3773 189.087 23.2763 189.363 25.9998C185.256 22.7831 181.64 19.2005 174.092 18.0404C177.145 14.8145 178.256 12.3578 179.31 9.99418C181.377 10.6518 184.924 15.2642 185.991 17.1378ZM139.999 22.2155C141.631 15.1464 151.362 8.14548 155.516 5.15839C159.198 2.5094 163.745 0 167.752 0C168.963 0 170.12 0.229542 171.193 0.750654C166.704 6.42085 151.897 20.0101 140.918 29.6258C139.814 26.8776 139.498 24.3837 139.999 22.2155ZM145.782 38.5282C143.564 37.0579 142.795 35.1999 142.088 32.6253C154.162 22.8328 166.792 10.7541 173.304 2.76686C174.214 3.04603 176.238 5.98039 176.516 7.62437C174.08 13.5086 169.641 18.363 164.687 22.8421C164.665 22.8607 164.646 22.8793 164.624 22.8979C162.526 24.79 156.361 30.3176 154.055 31.9522L145.782 38.5282ZM156.433 34.1918C157.171 33.5714 161.403 30.9534 162.157 30.3269C164.018 28.7728 166.179 27.1195 166.607 26.1114C169.291 27.1537 173.814 32.7122 175.803 35.2619C169.163 32.9169 160.808 33.6521 156.433 34.1918ZM181.771 38.4568C181.771 38.4568 180.989 37.0176 179.457 35.1254L177.686 32.6843C177.236 32.1321 176.785 31.5552 176.329 30.9658C174.358 28.4316 172.191 25.6555 169.232 23.9153C170.32 22.8514 171.381 21.7502 172.394 20.6118C175.919 20.0163 185.127 25.7951 187.927 29.9205C187.814 30.7115 188.061 31.9553 187.161 34.6633C186.178 37.6193 181.771 38.4568 181.771 38.4568Z" fill="#C5E205"/>
<path d="M288.261 74.2284H292.524C297.853 74.2284 301.91 72.63 304.779 69.4329C307.649 66.2359 309.083 61.9322 309.083 56.5629V28.2816H298.795V55.2103C298.795 61.8502 296.008 65.2522 290.434 65.4161H290.27C284.696 65.2522 281.908 61.8502 281.908 55.2103V28.2816H271.621V56.5629C271.621 61.9322 273.055 66.1949 275.924 69.4329C278.793 72.63 282.851 74.2284 288.18 74.2284H292.442" fill="white"/>
<path d="M2.86673 68.4812C0.347581 65.1082 3.3695 60.9642 7.527 60.3022L9.73282 59.9509C9.90751 61.9596 10.8202 63.5659 12.4708 64.7697C14.1215 65.9734 16.4531 66.5771 19.4656 66.5771C22.1288 66.5771 24.1859 66.1182 25.6369 65.2003C27.0843 64.2789 27.8081 63.0434 27.8081 61.4936C27.8081 59.7709 26.9239 58.493 25.1591 57.6598C23.3908 56.8267 21.2767 56.1489 18.8132 55.6264C16.3497 55.104 13.8577 54.578 11.3371 54.0414C8.81658 53.5083 6.67392 52.2657 4.90561 50.3135C3.1373 48.3648 2.25315 45.696 2.25315 42.3106C2.25315 38.4097 3.88955 35.0948 7.16235 32.3695C10.4351 29.6442 14.7668 28.2816 20.1573 28.2816C25.4301 28.2816 29.4872 29.5736 32.3251 32.1542C33.1058 32.8638 33.8046 33.6086 34.4214 34.3888C36.7744 37.3542 35.0702 41.7351 31.3233 42.4023L27.9756 42.9989C27.7439 41.2197 26.9453 39.7159 25.587 38.4803C24.2251 37.2483 22.3284 36.6305 19.8935 36.6305C17.5012 36.6305 15.6402 37.0541 14.3176 37.8978C13.1304 38.6568 12.3496 39.9312 12.1856 41.3186C11.9824 43.0554 12.8666 44.351 14.8416 45.2088C16.6313 45.9855 18.7526 46.6492 21.2019 47.1963C23.6511 47.7435 26.1431 48.3013 28.6779 48.8696C31.2127 49.438 33.3483 50.7548 35.0916 52.8235C36.835 54.8922 37.7084 57.6387 37.7084 61.0665C37.7084 65.0838 36.072 68.4128 32.7993 71.0499C29.5265 73.6905 24.874 75.0072 18.8489 75.0072C13.0555 75.0072 8.62048 73.7575 5.5509 71.2617C4.51887 70.422 3.62401 69.4951 2.86673 68.4812Z" fill="white"/>
</svg>
