<svg width="177" height="54" viewBox="0 0 177 54" fill="none" xmlns="http://www.w3.org/2000/svg">
<path d="M35.674 20.8569C33.8481 20.8569 32.3031 21.3953 31.1093 22.4721C29.892 23.5489 29.143 25.0002 28.8387 26.8027H42.4157C42.1582 25.0002 41.4325 23.5489 40.2387 22.4721C39.0682 21.3953 37.5467 20.8569 35.674 20.8569ZM47.3315 35.1596C46.9101 37.1961 44.6161 39.5838 42.8604 40.7543C40.8005 42.112 38.4128 42.7908 35.6974 42.7908C31.8818 42.7908 28.8152 41.5267 26.4744 38.9986C24.1335 36.4705 22.9631 33.2635 22.9631 29.401C22.9631 25.6323 24.1335 22.4721 26.4978 19.8971C28.8621 17.3222 31.9052 16.0581 35.6506 16.0581C39.396 16.0581 42.4157 17.3222 44.7331 19.8269C47.0506 22.3316 48.1976 25.4918 48.1976 29.3074L48.1508 31.1333H28.7216C28.9557 33.1699 29.6814 34.785 30.9454 35.9789C32.1861 37.1727 33.8247 37.7814 35.8613 37.7814C38.6235 37.7814 40.5898 36.7748 42.1114 33.8487L47.3315 35.1596Z" fill="#2D2D2D"/>
<path d="M150.844 20.3425C150.844 20.9511 150.844 21.2086 150.844 21.2086C150.844 21.2086 142.932 20.9043 142.932 28.5121V41.8082H137.08V16.2694H142.487V19.8041C143.915 17.2759 146.584 15.848 150.844 16.0119V20.3425Z" fill="#2D2D2D"/>
<path d="M60.6724 42.3932H63.1069C66.15 42.3932 68.4674 41.4803 70.106 39.6544C71.7447 37.8285 72.564 35.3706 72.564 32.3041V16.1521H66.6884V31.5316C66.6884 35.3238 65.0966 37.2667 61.913 37.3604H61.796C58.6124 37.2667 57.0206 35.3238 57.0206 31.5316V16.1521H51.145V32.3041C51.145 35.3706 51.9643 37.8051 53.6029 39.6544C55.2415 41.4803 57.559 42.3932 60.6021 42.3932H63.0366" fill="#2D2D2D"/>
<path d="M121.116 42.3932H123.55C126.593 42.3932 128.911 41.4803 130.549 39.6544C132.188 37.8285 133.007 35.3706 133.007 32.3041V16.1521H127.132V31.5316C127.132 35.3238 125.54 37.2667 122.356 37.3604H122.263C119.079 37.2667 117.487 35.3238 117.487 31.5316V16.1521H111.612V32.3041C111.612 35.3706 112.431 37.8051 114.069 39.6544C115.708 41.4803 118.026 42.3932 121.069 42.3932H123.503" fill="#2D2D2D"/>
<path fill-rule="evenodd" clip-rule="evenodd" d="M104.473 39.303C103.163 37.8984 101.079 37.1962 98.2233 37.1962H89.8664C88.6726 37.1962 88.0874 36.6344 88.0874 35.5342C88.0874 34.9489 88.2747 34.4573 88.6726 34.1062C89.0705 33.7551 89.3983 33.5444 89.6558 33.4742C91.1305 34.036 92.5584 34.3169 93.9395 34.3169C97.0295 34.3169 99.5108 33.4274 101.384 31.6483C104.567 28.652 104.169 24.9066 104.169 24.9066H98.7851C98.7851 24.9534 98.9256 26.9432 97.4743 28.1838C96.5613 28.9329 95.4143 29.3777 93.9161 29.3777C92.418 29.3777 91.2241 28.9797 90.358 28.1838C89.4451 27.3177 89.0706 24.9534 89.0471 24.9066H83.6866C83.6866 24.9534 83.5929 26.9198 84.4825 28.8627C84.8804 29.7288 85.6529 30.7822 86.1679 31.3206C84.1313 32.491 83.1247 34.2701 83.1247 36.6344C83.1247 38.6475 83.827 40.1457 85.2315 41.1522C83.4056 42.3929 82.4693 44.0549 82.4693 46.1149C82.4693 48.4089 83.4057 50.1412 85.2549 51.335C87.1042 52.5054 90.1005 53.1141 94.2439 53.1141C98.2467 53.1141 101.29 52.2948 103.35 50.6796C105.41 49.0644 106.44 47.1214 106.44 44.8508C106.44 42.5333 105.784 40.7075 104.473 39.303ZM94.1268 48.1982C91.6923 48.1982 90.0069 47.9407 89.0471 47.4492C88.0874 46.9576 87.6192 46.1383 87.6192 44.9912C87.6192 43.8676 88.0874 43.0015 89.0471 42.3929H98.0595C99.0192 42.3929 99.7449 42.6036 100.283 43.0249C100.798 43.4463 101.079 44.0549 101.079 44.8508C101.079 47.0746 98.7617 48.1982 94.1268 48.1982Z" fill="#2D2D2D"/>
<path d="M106.223 9.78769C106.95 11.0667 107.992 13.2935 108.149 14.8489C105.803 13.0119 103.738 10.9658 99.4276 10.3032C101.171 8.46082 101.805 7.05777 102.407 5.70786C103.588 6.08343 105.614 8.71769 106.223 9.78769ZM79.9561 12.6877C80.8886 8.65037 86.446 4.65203 88.8183 2.94605C90.9209 1.43317 93.5183 0 95.8066 0C96.4979 0 97.1589 0.131095 97.7716 0.428712C95.2082 3.66707 86.7515 11.4281 80.4813 16.9199C79.8507 15.3503 79.6703 13.926 79.9561 12.6877ZM83.2591 22.0042C81.9926 21.1644 81.5531 20.1033 81.1494 18.6329C88.0448 13.0402 95.2582 6.14189 98.9774 1.58021C99.4973 1.73964 100.653 3.41551 100.812 4.35442C99.4205 7.71501 96.8856 10.4874 94.056 13.0455C94.0435 13.0562 94.0327 13.0668 94.0202 13.0774C92.8216 14.1581 89.3006 17.3149 87.9841 18.2485L83.2591 22.0042ZM89.3417 19.5276C89.7633 19.1732 92.1803 17.6781 92.6108 17.3202C93.6737 16.4327 94.9081 15.4885 95.1528 14.9127C96.6855 15.508 99.2686 18.6825 100.405 20.1387C96.6123 18.7995 91.8409 19.2193 89.3417 19.5276ZM103.813 21.9634C103.813 21.9634 103.367 21.1414 102.491 20.0608L101.48 18.6666C101.223 18.3513 100.966 18.0218 100.705 17.6852C99.5794 16.2378 98.3415 14.6523 96.6516 13.6585C97.2732 13.0508 97.8788 12.422 98.4576 11.7718C100.471 11.4317 105.73 14.732 107.329 17.0882C107.264 17.5399 107.406 18.2503 106.891 19.7968C106.33 21.4851 103.813 21.9634 103.813 21.9634Z" fill="#C6E209"/>
<path d="M164.631 42.3932H167.066C170.109 42.3932 172.427 41.4803 174.065 39.6544C175.704 37.8285 176.523 35.3706 176.523 32.3041V16.1521H170.647V31.5316C170.647 35.3238 169.056 37.2667 165.872 37.3604H165.778C162.595 37.2667 161.003 35.3238 161.003 31.5316V16.1521H155.128V32.3041C155.128 35.3706 155.947 37.8051 157.585 39.6544C159.224 41.4803 161.542 42.3932 164.585 42.3932H167.019" fill="#2D2D2D"/>
<path d="M1.43118 38.8227C0.185259 36.9991 1.76769 34.8429 3.94877 34.4956L5.55859 34.2393C5.65836 35.3865 6.17961 36.3039 7.12233 36.9914C8.06505 37.6789 9.39667 38.0236 11.1172 38.0236C12.6382 38.0236 13.813 37.7615 14.6417 37.2373C15.4684 36.7111 15.8817 36.0055 15.8817 35.1204C15.8817 34.1365 15.3767 33.4066 14.3689 32.9308C13.3589 32.455 12.1515 32.0679 10.7446 31.7695C9.33762 31.4711 7.91438 31.1707 6.47484 30.8643C5.03531 30.5598 3.8116 29.8501 2.80168 28.7352C1.79177 27.6223 1.28681 26.0981 1.28681 24.1646C1.28681 21.9367 2.22139 20.0435 4.09055 18.4871C5.9597 16.9306 8.43359 16.1523 11.5122 16.1523C14.5236 16.1523 16.8407 16.8903 18.4615 18.3641C18.9074 18.7693 19.3064 19.1947 19.6587 19.6403C21.0025 21.3339 20.0293 23.8359 17.8893 24.217L15.9774 24.5577C15.845 23.5416 15.389 22.6827 14.6132 21.977C13.8354 21.2734 12.7522 20.9206 11.3615 20.9206C9.99529 20.9206 8.93243 21.1625 8.17703 21.6444C7.49901 22.0778 7.0531 22.8057 6.95944 23.598C6.84338 24.59 7.34833 25.3299 8.47634 25.8198C9.49847 26.2634 10.71 26.6424 12.1088 26.9549C13.5076 27.2674 14.9308 27.586 16.3785 27.9106C17.8262 28.2352 19.0458 28.9872 20.0415 30.1687C21.0371 31.3502 21.536 32.9187 21.536 34.8764C21.536 37.1708 20.6014 39.0721 18.7323 40.5781C16.8631 42.0862 14.206 42.8382 10.7649 42.8382C7.45625 42.8382 4.92332 42.1245 3.17022 40.6991C2.48433 40.141 1.90453 39.5155 1.43118 38.8227Z" fill="#2D2D2D"/>
</svg>
